# xmcd CD database file
#
# Track frame offsets:
#	150
#	17416
#	39285
#	54310
#	72111
#	93796
#	108383
#	129575
#	151279
#	168608
#	190995
#	209097
#	222401
#
# Disc length: 3211 seconds
#
# Revision: 0
# Processed by: cddbd v1.5.2PL0 Copyright (c) Steve Scherf et al.
# Submitted via: CDex 1.70beta2
#
DISCID=b00c890d
DTITLE=Sierra Maestra - Sonando Ya
DYEAR=2010
DGENRE=Salsa
TTITLE0=Pal' monte
TTITLE1=Un toque de Bembe
TTITLE2=No me Guardes Rencor
TTITLE3=La mulata presumida
TTITLE4=Bendito hechizo
TTITLE5=A una mujer
TTITLE6=Perdona mi traicion
TTITLE7=Juan Andres
TTITLE8=El mas pequeno deseo
TTITLE9=Sangre negra
TTITLE10=La vida sin ti
TTITLE11=Estado de animo
TTITLE12=A ti, no te sale!!
EXTD=YEAR: 2010
EXTT0=
EXTT1=
EXTT2=
EXTT3=
EXTT4=
EXTT5=
EXTT6=
EXTT7=
EXTT8=
EXTT9=
EXTT10=
EXTT11=
EXTT12=
PLAYORDER=
